# xmcd
#
# Track frame offsets:
#	150
#	33905
#	72080
#	87385
#	99310
#	128035
#	144758
#	175880
#	203333
#	223960
#
# Disc length: 3371 seconds
#
# Revision: 1
# Processed by: cddbd v1.5.1PL2 Copyright (c) Steve Scherf et al.
# Submitted via: EasyCDDAExtractor 6.2.0.3
#
DISCID=820d290a
DTITLE=Harold Melvin and The Blue Notes - If You Don't Know Me By Now
DYEAR=1993
DGENRE=Soul
TTITLE0=Wake Up Everybody
TTITLE1=I Miss You
TTITLE2=If You Don't Know Me By Now
TTITLE3=Let Me Into Your World
TTITLE4=The Love I Lost
TTITLE5=Hope That We Can Be Together Soon*
TTITLE6=Is There A Place For Me
TTITLE7=Don't Leave Me This Way
TTITLE8=To Be True*
TTITLE9=Bad Luck*
EXTD=
EXTT0=
EXTT1=
EXTT2=
EXTT3=
EXTT4=
EXTT5=Female Vocal by Sharon Paige\n*Featuring Teddy Pendergrass
EXTT6=
EXTT7=
EXTT8=*Featuring Teddy Pendergrass
EXTT9=*Featuring Teddy Pendergrass
PLAYORDER=
